<svg width="16" height="17" viewBox="0 0 16 17" fill="none" xmlns="http://www.w3.org/2000/svg">
<path d="M12.9072 0.857142H3.26432C1.66722 0.857142 0.37146 2.1529 0.37146 3.75V13.3929C0.37146 14.99 1.66722 16.2857 3.26432 16.2857H8.60807V10.3092H6.59914V7.97879H8.60807V6.26116C8.60807 4.27232 9.83351 3.1875 11.6114 3.1875C12.4552 3.1875 13.1884 3.24777 13.3994 3.2779V5.35714L12.1739 5.36719C11.1996 5.36719 11.0188 5.8192 11.0188 6.49219V7.97879H13.319L13.0177 10.3092H11.0188V16.2857H12.9072C14.5043 16.2857 15.8 14.99 15.8 13.3929V3.75C15.8 2.1529 14.5043 0.857142 12.9072 0.857142Z" fill="#2B2B2B"/>
</svg>
