<svg width="17" height="13" viewBox="0 0 17 13" fill="none" xmlns="http://www.w3.org/2000/svg">
<path d="M16.1295 1.66964C15.5469 1.92076 14.9141 2.10156 14.2612 2.17188C14.9342 1.77009 15.4465 1.13728 15.6875 0.383928C15.0648 0.75558 14.3616 1.02679 13.6284 1.16741C13.0357 0.534598 12.192 0.142857 11.2578 0.142857C9.45986 0.142857 8.01343 1.59933 8.01343 3.38728C8.01343 3.63839 8.04356 3.88951 8.09379 4.13058C5.40182 3.98995 3.00115 2.70424 1.40405 0.735491C1.1228 1.21763 0.962089 1.77009 0.962089 2.37277C0.962089 3.49777 1.53463 4.49219 2.40852 5.07478C1.87615 5.05469 1.37392 4.90402 0.941999 4.66295C0.941999 4.67299 0.941999 4.69308 0.941999 4.70312C0.941999 6.28013 2.05695 7.58594 3.54356 7.88728C3.27236 7.95759 2.98106 7.99777 2.68977 7.99777C2.47883 7.99777 2.27794 7.97768 2.07704 7.94754C2.48887 9.23326 3.68419 10.1674 5.11053 10.1975C3.99557 11.0714 2.59937 11.5837 1.08262 11.5837C0.811419 11.5837 0.560303 11.5737 0.299142 11.5435C1.73553 12.4676 3.44312 13 5.28129 13C11.2478 13 14.5123 8.05804 14.5123 3.76897C14.5123 3.62835 14.5123 3.48772 14.5023 3.3471C15.1351 2.88504 15.6875 2.3125 16.1295 1.66964Z" fill="#2B2B2B"/>
</svg>
