<svg width="76" height="76" viewBox="0 0 76 76" fill="none" xmlns="http://www.w3.org/2000/svg">
<rect width="76" height="76" rx="14" fill="#4A4AFF"/>
<path d="M52.6728 50.6967C54.5924 52.3578 54.8235 55.3036 52.8274 56.8719C50.0862 59.0256 46.8935 60.568 43.4633 61.3699C38.532 62.5227 33.3624 62.0861 28.6944 60.1225C24.0263 58.1589 20.099 54.769 17.4745 50.4379C14.8499 46.1069 13.6627 41.0566 14.0827 36.0098C14.5026 30.963 16.5083 26.1784 19.8125 22.3406C23.1168 18.5029 27.5504 15.8087 32.4788 14.6437C37.4072 13.4787 42.5778 13.9025 47.2508 15.8545C50.5013 17.2123 53.3951 19.2612 55.7426 21.8383C57.4521 23.715 56.7373 26.5821 54.5695 27.903V27.903C52.4018 29.224 49.6064 28.4614 47.6864 26.8007C46.5063 25.78 45.165 24.9459 43.7074 24.337C40.8244 23.1327 37.6343 22.8712 34.5936 23.59C31.553 24.3088 28.8176 25.971 26.779 28.3387C24.7404 30.7065 23.503 33.6584 23.2439 36.7721C22.9848 39.8858 23.7173 43.0016 25.3365 45.6738C26.9557 48.3459 29.3787 50.4373 32.2588 51.6488C35.1388 52.8602 38.3282 53.1296 41.3706 52.4184C42.9088 52.0588 44.3695 51.4579 45.7022 50.6462C47.8703 49.3258 50.7532 49.0356 52.6728 50.6967V50.6967Z" fill="white"/>
<path d="M35.608 30.486C35.3293 30.3687 35.0213 30.31 34.684 30.31C34.3613 30.31 34.09 30.3687 33.87 30.486C33.6647 30.6033 33.4887 30.7647 33.342 30.97C33.1953 31.1607 33.078 31.3807 32.99 31.63C32.9167 31.8793 32.858 32.1287 32.814 32.378L32.616 33.544H35.08L34.618 36.184H32.198L30.724 44.5H27.27L28.744 36.184H26.742L27.204 33.544H29.14L29.36 32.422C29.4773 31.7913 29.646 31.1753 29.866 30.574C30.086 29.9727 30.394 29.4447 30.79 28.99C31.2007 28.5207 31.714 28.1467 32.33 27.868C32.946 27.5893 33.7013 27.45 34.596 27.45C34.8893 27.45 35.1827 27.472 35.476 27.516C35.7693 27.5453 36.026 27.5967 36.246 27.67L35.608 30.486ZM39.8832 34.952C40.2646 34.4387 40.7632 34.028 41.3792 33.72C42.0099 33.412 42.6772 33.258 43.3812 33.258C44.0852 33.258 44.7159 33.3753 45.2732 33.61C45.8452 33.8447 46.3219 34.1747 46.7032 34.6C47.0992 35.0107 47.3999 35.5093 47.6052 36.096C47.8106 36.668 47.9132 37.2913 47.9132 37.966C47.9132 38.9047 47.7592 39.792 47.4512 40.628C47.1579 41.4493 46.7399 42.168 46.1972 42.784C45.6546 43.4 45.0166 43.884 44.2832 44.236C43.5499 44.588 42.7432 44.764 41.8632 44.764C41.0859 44.764 40.3672 44.6027 39.7072 44.28C39.0619 43.9573 38.5706 43.51 38.2332 42.938H38.1892L37.9252 44.5H34.6692L37.5952 27.868H41.1372L39.8392 34.952H39.8832ZM44.4152 38.428C44.4152 37.768 44.2246 37.218 43.8432 36.778C43.4619 36.3233 42.8972 36.096 42.1492 36.096C41.7092 36.096 41.2986 36.1913 40.9172 36.382C40.5359 36.5727 40.2059 36.8293 39.9272 37.152C39.6632 37.4747 39.4506 37.8487 39.2892 38.274C39.1279 38.6993 39.0472 39.1467 39.0472 39.616C39.0472 40.2907 39.2526 40.848 39.6632 41.288C40.0739 41.7133 40.6386 41.926 41.3572 41.926C41.8266 41.926 42.2446 41.838 42.6112 41.662C42.9926 41.4713 43.3152 41.222 43.5792 40.914C43.8432 40.5913 44.0486 40.2173 44.1952 39.792C44.3419 39.3667 44.4152 38.912 44.4152 38.428Z" fill="white"/>
<path d="M60.0172 36.756C60.0172 36.9613 60.0025 37.1813 59.9732 37.416C59.9585 37.6507 59.9292 37.878 59.8852 38.098L59.1372 42.366C59.0638 42.7473 59.0052 43.136 58.9612 43.532C58.9318 43.928 58.9172 44.2507 58.9172 44.5H55.7932C55.7932 44.3387 55.8005 44.1553 55.8152 43.95C55.8298 43.73 55.8518 43.5247 55.8812 43.334H55.8372C55.0305 44.2873 53.9158 44.764 52.4932 44.764C52.1118 44.764 51.7158 44.7127 51.3052 44.61C50.9092 44.522 50.5425 44.368 50.2052 44.148C49.8825 43.9133 49.6185 43.6127 49.4132 43.246C49.2078 42.8647 49.1052 42.4027 49.1052 41.86C49.1052 40.98 49.3252 40.2613 49.7652 39.704C50.2052 39.1467 50.7772 38.714 51.4812 38.406C52.1998 38.098 53.0065 37.8853 53.9012 37.768C54.8105 37.6507 55.7198 37.592 56.6292 37.592C56.6585 37.46 56.6732 37.3573 56.6732 37.284C56.6732 37.2107 56.6732 37.1447 56.6732 37.086C56.6732 36.6607 56.5192 36.3527 56.2112 36.162C55.9178 35.9567 55.4998 35.854 54.9572 35.854C54.4585 35.854 53.9525 35.9493 53.4392 36.14C52.9405 36.3307 52.4858 36.58 52.0752 36.888L50.6232 34.864C51.2832 34.336 52.0385 33.9327 52.8892 33.654C53.7545 33.3607 54.6052 33.214 55.4412 33.214C56.1012 33.214 56.7098 33.2873 57.2672 33.434C57.8245 33.566 58.3012 33.7787 58.6972 34.072C59.1078 34.3653 59.4305 34.732 59.6652 35.172C59.8998 35.612 60.0172 36.14 60.0172 36.756ZM56.1232 39.704C55.6832 39.704 55.2358 39.726 54.7812 39.77C54.3265 39.7993 53.9158 39.8727 53.5492 39.99C53.1972 40.1073 52.9038 40.2687 52.6692 40.474C52.4345 40.6793 52.3172 40.9507 52.3172 41.288C52.3172 41.728 52.4638 42.0287 52.7572 42.19C53.0652 42.3367 53.4025 42.41 53.7692 42.41C54.4438 42.41 55.0085 42.2047 55.4632 41.794C55.9178 41.3687 56.2038 40.848 56.3212 40.232L56.4312 39.704H56.1232Z" fill="#A782FF"/>
</svg>
